<?xml version="1.0" encoding="UTF-8" standalone="no"?>
<!DOCTYPE svg PUBLIC "-//W3C//DTD SVG 1.1//EN" "http://www.w3.org/Graphics/SVG/1.1/DTD/svg11.dtd">
<svg version="1.1" xmlns="http://www.w3.org/2000/svg" xmlns:xlink="http://www.w3.org/1999/xlink" preserveAspectRatio="xMidYMid meet" viewBox="0 0 640 640" width="640" height="640"><defs><path d="M599.51 283.1C599.51 427.45 483.26 544.65 340.07 544.65C196.88 544.65 80.63 427.45 80.63 283.1C80.63 138.75 196.88 21.55 340.07 21.55C483.26 21.55 599.51 138.75 599.51 283.1Z" id="e1kIW8mHMI"></path><path d="M518.52 284.51C518.52 384.55 438.56 465.77 340.07 465.77C241.58 465.77 161.62 384.55 161.62 284.51C161.62 184.46 241.58 103.24 340.07 103.24C438.56 103.24 518.52 184.46 518.52 284.51Z" id="b2hZPmRtHA"></path><path d="M439.72 283.1C439.72 341.55 392.73 389.01 334.86 389.01C276.99 389.01 230 341.55 230 283.1C230 224.64 276.99 177.18 334.86 177.18C392.73 177.18 439.72 224.64 439.72 283.1Z" id="beSWobgaW"></path><path d="M285.49 220.7L277.04 227.04L268.59 232.68L262.96 241.83L261.55 253.1L260.14 264.37L258.73 274.93L258.03 285.49L260.14 295.35L267.18 287.61L270.7 277.75L272.11 267.18L272.11 256.62L272.82 246.06L277.04 236.2L281.27 227.04" id="aAE7gjmos"></path><path d="M412.25 267.89L414.37 277.75L415.07 288.31L415.07 298.87L412.25 308.73L403.8 316.48L396.06 323.52L405.21 329.86L415.77 327.75L422.82 318.59L427.04 309.44L427.75 298.17L425.63 287.61L417.89 280.56" id="aOuXqMZs8"></path><path d="M199.58 504.51L211.55 505.92L221.41 508.73L231.97 513.66L241.83 517.89L251.69 522.11L261.55 526.34L272.11 529.86L283.38 531.27L296.06 531.97L309.44 533.38L322.11 535.49L334.08 536.9L346.06 537.61L358.03 536.9L370.7 534.08L385.49 534.08L396.06 531.27L405.92 529.15L415.77 526.34L425.63 524.23L436.2 522.82L446.06 520.7L455.92 517.89L459.44 528.45L456.62 538.31L453.1 548.87L449.58 558.73L447.46 568.59L443.94 579.15L443.24 589.72L439.01 601.69L433.38 610.85L427.04 618.59L419.3 624.93L410.14 631.27L400.28 634.79L390.42 638.31L379.15 640.42L367.89 640.42L353.8 640.42L341.83 640.42L331.27 640.42L320 640.42L309.44 640.42L298.87 640.42L287.61 639.01L276.34 636.2L267.18 630.56L259.44 622.11L253.1 614.37L246.06 605.92L240.42 597.46L236.9 586.2L231.27 577.04L227.75 567.18L222.82 557.32L220 547.46L216.48 537.61L212.25 528.45L206.62 519.3L202.39 510.14" id="cvIBHk5na"></path></defs><g><g><g><use xlink:href="#e1kIW8mHMI" opacity="1" fill="#3fff00" fill-opacity="1"></use></g><g><use xlink:href="#b2hZPmRtHA" opacity="1" fill="#192fc6" fill-opacity="1"></use></g><g><use xlink:href="#beSWobgaW" opacity="1" fill="#000000" fill-opacity="1"></use></g><g><use xlink:href="#aAE7gjmos" opacity="1" fill="#ffffff" fill-opacity="1"></use><g><use xlink:href="#aAE7gjmos" opacity="1" fill-opacity="0" stroke="#000000" stroke-width="1" stroke-opacity="1"></use></g></g><g><use xlink:href="#aOuXqMZs8" opacity="1" fill="#ffffff" fill-opacity="1"></use><g><use xlink:href="#aOuXqMZs8" opacity="1" fill-opacity="0" stroke="#000000" stroke-width="1" stroke-opacity="1"></use></g></g><g><use xlink:href="#cvIBHk5na" opacity="1" fill="#00ff00" fill-opacity="1"></use><g><use xlink:href="#cvIBHk5na" opacity="1" fill-opacity="0" stroke="#000000" stroke-width="1" stroke-opacity="1"></use></g></g></g></g></svg>