<?xml version="1.0" encoding="UTF-8" standalone="no"?>
<!DOCTYPE svg PUBLIC "-//W3C//DTD SVG 1.1//EN" "http://www.w3.org/Graphics/SVG/1.1/DTD/svg11.dtd">
<svg version="1.1" xmlns="http://www.w3.org/2000/svg" xmlns:xlink="http://www.w3.org/1999/xlink" preserveAspectRatio="xMidYMid meet" viewBox="0 0 640 640" width="640" height="640"><defs><path d="M55.21 502.11L95.21 502.11L95.21 542.11L55.21 542.11L55.21 502.11Z" id="a1T3rMQ3Jh"></path><path d="M55.21 462.68L95.21 462.68L95.21 502.68L55.21 502.68L55.21 462.68Z" id="a9RbTWImZN"></path><path d="M55.21 423.94L95.21 423.94L95.21 463.94L55.21 463.94L55.21 423.94Z" id="a1bHAQbfln"></path><path d="M55.21 385.92L95.21 385.92L95.21 425.92L55.21 425.92L55.21 385.92Z" id="a5vad7esuD"></path><path d="M55.21 347.18L95.21 347.18L95.21 387.18L55.21 387.18L55.21 347.18Z" id="g1f8J969Iv"></path><path d="M55.21 309.15L95.21 309.15L95.21 349.15L55.21 349.15L55.21 309.15Z" id="b1FzZiIczH"></path><path d="M75.21 269.72L115.21 269.72L115.21 309.72L75.21 309.72L75.21 269.72Z" id="a1MIhBH56a"></path><path d="M95.21 229.72L135.21 229.72L135.21 269.72L95.21 269.72L95.21 229.72Z" id="i19eBFcKbf"></path><path d="M107.75 189.72L147.75 189.72L147.75 229.72L107.75 229.72L107.75 189.72Z" id="blP4HgasR"></path><path d="M145.77 229.72L185.77 229.72L185.77 269.72L145.77 269.72L145.77 229.72Z" id="e4OLPdFtX"></path><path d="M174.65 269.72L214.65 269.72L214.65 309.72L174.65 309.72L174.65 269.72Z" id="f1WJ1Il7fA"></path><path d="M196.48 309.72L236.48 309.72L236.48 349.72L196.48 349.72L196.48 309.72Z" id="b2e1zcGpGR"></path><path d="M223.94 269.72L263.94 269.72L263.94 309.72L223.94 309.72L223.94 269.72Z" id="b300bZ6ep8"></path><path d="M243.94 229.72L283.94 229.72L283.94 269.72L243.94 269.72L243.94 229.72Z" id="c5MFQMRQ5b"></path><path d="M257.04 189.72L297.04 189.72L297.04 229.72L257.04 229.72L257.04 189.72Z" id="bJIPSRV3b"></path><path d="M292.25 229.72L332.25 229.72L332.25 269.72L292.25 269.72L292.25 229.72Z" id="b212UbJt7o"></path><path d="M292.25 269.72L332.25 269.72L332.25 309.72L292.25 309.72L292.25 269.72Z" id="b4gbEEMxGf"></path><path d="M292.25 309.72L332.25 309.72L332.25 349.72L292.25 349.72L292.25 309.72Z" id="cYV8RZIam"></path><path d="M292.25 347.18L332.25 347.18L332.25 387.18L292.25 387.18L292.25 347.18Z" id="aINBBDTa6"></path><path d="M292.25 387.18L332.25 387.18L332.25 427.18L292.25 427.18L292.25 387.18Z" id="a9BbDONLbc"></path><path d="M292.25 425.92L332.25 425.92L332.25 465.92L292.25 465.92L292.25 425.92Z" id="id1MbfCI3"></path><path d="M292.25 463.94L332.25 463.94L332.25 503.94L292.25 503.94L292.25 463.94Z" id="itVazF83i"></path><path d="M292.25 503.94L332.25 503.94L332.25 543.94L292.25 543.94L292.25 503.94Z" id="b1GtnuddAO"></path></defs><g><g><g><use xlink:href="#a1T3rMQ3Jh" opacity="1" fill="#000000" fill-opacity="1"></use></g><g><use xlink:href="#a9RbTWImZN" opacity="1" fill="#000000" fill-opacity="1"></use></g><g><use xlink:href="#a1bHAQbfln" opacity="1" fill="#000000" fill-opacity="1"></use></g><g><use xlink:href="#a5vad7esuD" opacity="1" fill="#000000" fill-opacity="1"></use></g><g><use xlink:href="#g1f8J969Iv" opacity="1" fill="#000000" fill-opacity="1"></use></g><g><use xlink:href="#b1FzZiIczH" opacity="1" fill="#000000" fill-opacity="1"></use></g><g><use xlink:href="#a1MIhBH56a" opacity="1" fill="#000000" fill-opacity="1"></use></g><g><use xlink:href="#i19eBFcKbf" opacity="1" fill="#000000" fill-opacity="1"></use></g><g><use xlink:href="#blP4HgasR" opacity="1" fill="#000000" fill-opacity="1"></use></g><g><use xlink:href="#e4OLPdFtX" opacity="1" fill="#000000" fill-opacity="1"></use></g><g><use xlink:href="#f1WJ1Il7fA" opacity="1" fill="#000000" fill-opacity="1"></use></g><g><use xlink:href="#b2e1zcGpGR" opacity="1" fill="#000000" fill-opacity="1"></use></g><g><use xlink:href="#b300bZ6ep8" opacity="1" fill="#000000" fill-opacity="1"></use></g><g><use xlink:href="#c5MFQMRQ5b" opacity="1" fill="#000000" fill-opacity="1"></use></g><g><use xlink:href="#bJIPSRV3b" opacity="1" fill="#000000" fill-opacity="1"></use></g><g><use xlink:href="#b212UbJt7o" opacity="1" fill="#000000" fill-opacity="1"></use></g><g><use xlink:href="#b4gbEEMxGf" opacity="1" fill="#000000" fill-opacity="1"></use></g><g><use xlink:href="#cYV8RZIam" opacity="1" fill="#000000" fill-opacity="1"></use></g><g><use xlink:href="#aINBBDTa6" opacity="1" fill="#000000" fill-opacity="1"></use></g><g><use xlink:href="#a9BbDONLbc" opacity="1" fill="#000000" fill-opacity="1"></use></g><g><use xlink:href="#id1MbfCI3" opacity="1" fill="#000000" fill-opacity="1"></use></g><g><use xlink:href="#itVazF83i" opacity="1" fill="#000000" fill-opacity="1"></use></g><g><use xlink:href="#b1GtnuddAO" opacity="1" fill="#000000" fill-opacity="1"></use></g></g></g></svg>