<?xml version="1.0" encoding="UTF-8" standalone="no"?>
<!DOCTYPE svg PUBLIC "-//W3C//DTD SVG 1.1//EN" "http://www.w3.org/Graphics/SVG/1.1/DTD/svg11.dtd">
<svg version="1.1" xmlns="http://www.w3.org/2000/svg" xmlns:xlink="http://www.w3.org/1999/xlink" preserveAspectRatio="xMidYMid meet" viewBox="0 0 640 640" width="640" height="640"><defs><path d="M27.75 62.96L34.08 74.93L37.61 84.79L43.94 93.24L48.87 106.62L53.1 117.18L58.03 127.04L62.96 137.61L67.89 147.46L72.82 157.32L75.63 146.76L79.15 136.2L84.08 126.34L88.31 117.18L92.54 106.62L95.35 96.76L97.46 106.62L100.99 117.89L104.51 128.45L105.21 139.01L108.03 149.58L112.25 159.44L118.59 146.76L122.82 134.79L126.34 123.52L130.56 114.37L134.79 103.8L137.61 93.24L141.13 80.56L146.76 71.41L157.32 74.23L167.18 78.45L172.11 87.61L168.59 98.17L161.55 108.73L154.51 120L150.28 129.15L146.06 139.72L141.83 150.28L136.2 159.44L130.56 168.59L124.93 177.75L118.59 186.2L109.44 180.56L105.21 171.41L102.39 160.85L97.46 151.69L86.2 160.85L79.15 170.7L75.63 180.56L66.48 170L61.55 158.03L55.92 149.58L53.1 139.01L50.99 127.04L47.46 117.18L41.83 108.03L35.49 98.17L29.86 89.01L23.52 78.45L21.41 68.59" id="aRukaevT"></path><path d="M191.83 166.48L199.58 157.32L203.8 148.17L210.14 131.97L216.48 122.11L224.23 112.96L230.56 105.21L239.01 98.17L245.35 88.31L253.1 79.86L259.44 71.41L267.89 79.86L272.11 89.72L272.11 103.8L272.11 115.07L272.11 127.75L275.63 138.31L279.86 148.87L284.08 158.03L290.42 172.82L294.65 182.68L284.08 182.68L273.52 178.45L262.96 177.04L256.62 169.3L252.39 157.32L251.69 146.76L253.1 136.2L242.54 135.49L234.79 142.54L230.56 152.39L223.52 161.55L215.77 168.59L204.51 169.3L194.65 165.07" id="b1Zy9SmGL1"></path><path d="M241.83 113.66L250.28 106.62L258.03 100.28L258.03 110.85L260.14 120.7L249.58 119.3" id="bgJegytMM"></path><path d="M336.2 79.15L348.17 79.15L359.44 79.86L362.25 89.72L362.25 100.28L362.25 110.85L387.61 79.86L398.87 79.15L406.62 85.49L415.77 90.42L425.63 95.35L432.68 103.1L440.42 110.14L423.52 108.73L410.85 105.92L399.58 104.51L388.31 103.1L377.75 105.21L369.3 113.66L366.48 125.63L367.89 138.31L368.59 150.99L368.59 163.66L367.89 174.23L358.03 177.04L347.46 172.82L334.08 170L323.52 165.77L310.85 161.55L313.66 151.69L319.3 139.01L323.52 127.04L327.75 112.96L331.97 101.69L336.9 92.54L340.42 82.68" id="aaK4PNLBN"></path><path d="M562.25 72.82L551.69 72.82L539.01 74.93L528.45 75.63L517.18 75.63L506.62 75.63L496.06 76.34L493.24 88.31L493.24 102.39L493.24 115.77L493.24 127.75L494.65 139.01L496.76 150.99L498.17 162.25L509.44 167.89L515.07 159.44L515.07 147.46L511.55 136.9L508.03 127.04L517.89 124.23L528.45 124.23L539.72 123.52L548.17 116.48L550.28 106.62L539.72 104.51L524.23 103.8L514.37 100.28L514.37 89.72L524.23 82.68L536.2 84.08L548.17 85.49L558.73 86.2L570 86.2L572.82 74.93L564.37 69.3" id="a1AdKT3JAq"></path><path d="M89.01 263.66L78.45 262.96L67.18 261.55L56.62 265.07L49.58 274.23L46.76 284.08L48.87 294.65L56.62 302.39L67.89 306.62L77.75 311.55L86.2 322.11L86.9 333.38L84.08 344.65L80.56 354.51L72.11 363.66L62.96 370L51.69 371.41L37.61 370L29.15 362.25L26.34 352.39L36.9 350.28L47.46 347.46L55.21 339.01L53.8 328.45L49.58 315.77L46.76 305.92L42.54 293.94L39.01 284.08L36.9 272.82L36.2 261.55L44.65 255.92L54.51 253.1L65.07 250.99L87.61 249.58L87.61 261.55" id="a4WtGwSyH"></path><path d="M160.14 251.69L171.41 248.17L181.27 250.28L181.27 260.85L182.68 272.11L181.27 282.68L191.83 284.79L203.1 284.79L210.85 291.83L212.96 301.69L202.39 302.39L191.13 302.39L182.68 310.14L184.79 320L184.08 331.97L184.08 342.54L170 343.24L159.44 343.24L160.14 332.68L160.14 320L150.99 315.77L141.83 308.03L140.42 295.35L150.99 291.13L155.92 279.15L155.21 268.59L155.21 258.03L162.96 250.99" id="c2oO23d2TB"></path><path d="M237.61 328.45L245.35 320L249.58 302.39L256.62 286.9L263.66 274.93L269.3 263.66L276.34 253.8L285.49 246.76L293.24 240.42L300.28 249.58L301.69 260.85L301.69 271.41L301.69 281.97L301.69 293.24L301.69 305.92L306.62 315.07L308.73 325.63L299.58 330.56L289.01 330.56L284.79 320.7L284.08 308.73L284.79 295.35L274.23 290.42L263.66 294.65L261.55 305.21L258.03 316.48L252.39 324.93L241.13 328.45" id="a1VCd9Ckn"></path><path d="M277.04 275.24L285.49 269.61L291.83 278.06L284.08 284.4L277.04 276.65" id="a5jmWonaO4"></path><path d="M399.58 260.45L387.61 260.45L377.04 261.16L367.89 265.38L357.32 274.54L350.28 282.99L346.76 292.85L350.99 302.71L359.44 310.45L372.11 316.09L381.97 320.31L391.83 325.95L400.99 330.88L405.92 340.03L394.65 345.66L382.68 348.48L372.82 345.66L362.96 340.03L354.51 333.69L350.28 324.54L345.35 315.38L341.83 305.52L336.9 295.66L336.9 283.69L335.49 273.13L339.72 263.27L348.87 259.05L358.03 254.12L367.89 249.89L379.86 247.07L393.24 247.07L403.8 247.07L400.28 257.64" id="g3YZNSnspu"></path><path d="M442.54 236.51L442.54 252.71L442.54 263.97L442.54 279.47L442.54 293.55L442.54 306.93L444.65 318.9L446.76 329.47L448.87 341.44L459.44 343.55L467.89 335.81L467.89 323.83L467.89 312.57L467.89 300.59L476.34 292.85L486.2 290.74L496.76 290.74L503.8 298.48L506.62 308.34L506.62 318.9L507.32 333.69L517.18 331.58L520 320.31L520 309.05L519.3 297.07L519.3 285.81L515.77 275.95L509.44 266.09L498.17 265.38L487.61 265.38L475.63 268.2L465.07 272.43L454.51 268.2L450.28 259.05L448.87 247.07L448.87 236.51" id="a42pGz5bGn"></path><path d="M543.24 246.37L543.24 259.05L541.13 273.13L539.01 288.62L536.9 300.59L537.61 311.16L541.13 323.13L543.94 333.69L558.73 334.4L570 333.69L584.79 330.88L594.65 323.83L598.17 312.57L587.61 307.64L577.04 305.52L565.77 306.23L555.21 306.93L554.51 294.96L553.8 284.4L563.66 279.47L574.23 279.47L584.79 279.47L593.24 269.61L594.65 259.05L584.79 254.12L573.52 254.12L562.96 254.12L556.62 243.55L555.92 232.28L567.18 227.36L580.56 226.65L593.24 226.65L599.58 214.68L591.83 206.93L579.86 206.93L569.3 206.93L558.03 209.75L547.46 214.68L540.42 223.83L540.42 234.4L541.83 244.96" id="aaRMqOy7E"></path><path d="M77.75 471.02L84.08 462.57L87.61 451.3L92.54 442.14L100.99 432.99L110.85 425.95L120.7 422.43L131.97 417.5L144.65 415.38L155.92 411.86L167.18 408.34L178.45 406.23L189.72 404.82L202.39 404.82L215.07 406.23L224.93 408.34L235.49 412.57L244.65 419.61L253.8 426.65L260.14 438.62L266.48 447.78L270.7 456.93L280.56 461.86L290.42 458.34L300.28 451.3L310.85 444.96L320 440.03L330.56 436.51L341.83 434.4L352.39 430.88L365.07 428.06L375.63 425.95L387.61 423.83L402.39 423.83L412.96 423.13L424.23 423.13L441.83 423.13L458.73 423.83L471.41 425.24L483.38 428.06L495.35 432.28L507.32 437.21L519.3 442.85L528.45 448.48L537.61 453.41L547.46 460.45L557.32 467.5L565.07 473.83L574.23 482.28L579.86 490.74L585.49 501.3L587.61 511.16L586.2 521.72L576.34 527.36L565.77 530.17L555.21 531.58L543.94 531.58L533.38 531.58L519.3 530.88L508.03 528.76L491.83 525.24L479.86 522.43L468.59 521.72L458.73 519.61L446.76 518.9L436.2 516.79L424.23 515.38L412.25 511.86L400.99 508.34L389.72 504.82L377.75 502.71L364.37 500.59L351.69 499.19L341.13 495.66L329.86 492.85L318.59 490.74L308.03 487.92L297.46 486.51L285.49 488.62L274.93 492.85L241.83 509.75L229.86 509.75L217.89 509.75L203.1 509.75L189.01 509.75L176.34 509.75L164.37 509.75L152.39 509.05L139.72 507.64L129.86 505.52L117.89 504.12L106.62 499.19L96.76 492.14L86.9 485.1L78.45 478.76L76.34 468.9" id="e37OvVKuhx"></path></defs><g><g><g><use xlink:href="#aRukaevT" opacity="1" fill="#ff6c86" fill-opacity="1"></use><g><use xlink:href="#aRukaevT" opacity="1" fill-opacity="0" stroke="#000000" stroke-width="1" stroke-opacity="1"></use></g></g><g><use xlink:href="#b1Zy9SmGL1" opacity="1" fill="#ff8398" fill-opacity="1"></use><g><use xlink:href="#b1Zy9SmGL1" opacity="1" fill-opacity="0" stroke="#000000" stroke-width="1" stroke-opacity="1"></use></g></g><g><use xlink:href="#bgJegytMM" opacity="1" fill="#ffffff" fill-opacity="1"></use><g><use xlink:href="#bgJegytMM" opacity="1" fill-opacity="0" stroke="#000000" stroke-width="1" stroke-opacity="1"></use></g></g><g><use xlink:href="#aaK4PNLBN" opacity="1" fill="#f892a4" fill-opacity="1"></use><g><use xlink:href="#aaK4PNLBN" opacity="1" fill-opacity="0" stroke="#000000" stroke-width="1" stroke-opacity="1"></use></g></g><g><use xlink:href="#a1AdKT3JAq" opacity="1" fill="#f67a90" fill-opacity="1"></use><g><use xlink:href="#a1AdKT3JAq" opacity="1" fill-opacity="0" stroke="#000000" stroke-width="1" stroke-opacity="1"></use></g></g><g><use xlink:href="#a4WtGwSyH" opacity="1" fill="#fc899c" fill-opacity="1"></use><g><use xlink:href="#a4WtGwSyH" opacity="1" fill-opacity="0" stroke="#000000" stroke-width="1" stroke-opacity="1"></use></g></g><g><use xlink:href="#c2oO23d2TB" opacity="1" fill="#f58799" fill-opacity="1"></use><g><use xlink:href="#c2oO23d2TB" opacity="1" fill-opacity="0" stroke="#000000" stroke-width="1" stroke-opacity="1"></use></g></g><g><use xlink:href="#a1VCd9Ckn" opacity="1" fill="#f38f9f" fill-opacity="1"></use><g><use xlink:href="#a1VCd9Ckn" opacity="1" fill-opacity="0" stroke="#000000" stroke-width="1" stroke-opacity="1"></use></g></g><g><use xlink:href="#a5jmWonaO4" opacity="1" fill="#ffffff" fill-opacity="1"></use><g><use xlink:href="#a5jmWonaO4" opacity="1" fill-opacity="0" stroke="#000000" stroke-width="1" stroke-opacity="1"></use></g></g><g><use xlink:href="#g3YZNSnspu" opacity="1" fill="#f98195" fill-opacity="1"></use><g><use xlink:href="#g3YZNSnspu" opacity="1" fill-opacity="0" stroke="#000000" stroke-width="1" stroke-opacity="1"></use></g></g><g><use xlink:href="#a42pGz5bGn" opacity="1" fill="#f38fa0" fill-opacity="1"></use><g><use xlink:href="#a42pGz5bGn" opacity="1" fill-opacity="0" stroke="#000000" stroke-width="1" stroke-opacity="1"></use></g></g><g><use xlink:href="#aaRMqOy7E" opacity="1" fill="#ef8697" fill-opacity="1"></use><g><use xlink:href="#aaRMqOy7E" opacity="1" fill-opacity="0" stroke="#000000" stroke-width="1" stroke-opacity="1"></use></g></g><g><use xlink:href="#e37OvVKuhx" opacity="1" fill="#f87d92" fill-opacity="1"></use><g><use xlink:href="#e37OvVKuhx" opacity="1" fill-opacity="0" stroke="#000000" stroke-width="1" stroke-opacity="1"></use></g></g></g></g></svg>